<?xml version="1.0" standalone="no"?>
<!DOCTYPE svg PUBLIC "-//W3C//DTD SVG 1.1//EN" "http://www.w3.org/Graphics/SVG/1.1/DTD/svg11.dtd" >
<!--
2013-9-30: Created.
-->
<svg>
<metadata>
Created by iconfont
</metadata>
<defs>

<font id="iconfont" horiz-adv-x="1024" >
  <font-face
    font-family="iconfont"
    font-weight="500"
    font-stretch="normal"
    units-per-em="1024"
    ascent="896"
    descent="-128"
  />
    <missing-glyph />
    
    <glyph glyph-name="x" unicode="x" horiz-adv-x="1001"
d="M281 543q-27 -1 -53 -1h-83q-18 0 -36.5 -6t-32.5 -18.5t-23 -32t-9 -45.5v-76h912v41q0 16 -0.5 30t-0.5 18q0 13 -5 29t-17 29.5t-31.5 22.5t-49.5 9h-133v-97h-438v97zM955 310v-52q0 -23 0.5 -52t0.5 -58t-10.5 -47.5t-26 -30t-33 -16t-31.5 -4.5q-14 -1 -29.5 -0.5
t-29.5 0.5h-32l-45 128h-439l-44 -128h-29h-34q-20 0 -45 1q-25 0 -41 9.5t-25.5 23t-13.5 29.5t-4 30v167h911zM163 247q-12 0 -21 -8.5t-9 -21.5t9 -21.5t21 -8.5q13 0 22 8.5t9 21.5t-9 21.5t-22 8.5zM316 123q-8 -26 -14 -48q-5 -19 -10.5 -37t-7.5 -25t-3 -15t1 -14.5
t9.5 -10.5t21.5 -4h37h67h81h80h64h36q23 0 34 12t2 38q-5 13 -9.5 30.5t-9.5 34.5q-5 19 -11 39h-368zM336 498v228q0 11 2.5 23t10 21.5t20.5 15.5t34 6h188q31 0 51.5 -14.5t20.5 -52.5v-227h-327z" />
    

    
    <glyph glyph-name="warning" unicode="&#58921;" d="M511.95790222 893.64138667c-281.47143111 0-509.68234667-228.19271111-509.68234667-509.68462222 0-281.48849778 228.21205333-509.68234667 509.68234667-509.68234667 281.47029333 0 509.68120889 228.19384889 509.68120889 509.68234667C1021.63911111 665.44981333 793.42819555 893.64138667 511.95790222 893.64138667zM511.95790222 742.82666667c35.33824 0 63.95904-28.59918222 63.95904-63.93969778l-22.72938667-424.02929778-0.41642666 0c-2.40412445-20.46976-19.6608-36.43847111-40.81322667-36.43847111-21.15356445 0-38.40796445 15.96871111-40.81436444 36.43847111l-0.08305778 0-0.16497778 2.40412444c0 0.83057778-0.16725333 1.59630222-0.16725333 2.42801778 0 0.24803555 0 0.47786667 0 0.72590222l-22.72938667 418.47125334C447.99886222 714.22748445 476.61738667 742.82666667 511.95790222 742.82666667zM511.95790222 25.09027555c-35.50549333 0-64.20935111 28.78464-64.20935111 64.26851556 0 35.48615111 28.70499555 64.27079111 64.20935111 64.27079111 35.50549333 0 64.20707555-28.78464 64.20707556-64.27079111C576.16497778 53.87491554999997 547.46339555 25.09027555 511.95790222 25.09027555z"  horiz-adv-x="1024" />

    
    <glyph glyph-name="back" unicode="&#59003;" d="M739.154533 777.0570270000001l17.398252 0L756.552785 831.249277 702.360536 831.249277l0-14.344706L269.619694 384.163729c-5.28947-5.291516-5.28947-13.867846 0-19.159362l405.644717-405.644717 0-22.281469 54.19225 0 0 54.19225-9.461489 0L336.681042 374.58456 739.154533 777.0570270000001z"  horiz-adv-x="1024" />

    
    <glyph glyph-name="clear" unicode="&#58941;" d="M512.15424541 152.80095293c11.15063964 0 20.20030401 9.04966435 20.20030401 20.19940488L532.35454942 455.79382354c0 11.14974053-9.04966435 20.19940489-20.19940489 20.19940488s-20.20030401-9.04966435-20.20030401-20.19940488l0-282.79256661C491.95484053 161.85061728999995 501.00450487 152.80095293 512.15424541 152.80095293zM633.35157383 152.80095293c11.14974053 0 20.19940489 9.04966435 20.19940489 20.19940488L653.55097872 455.79382354c0 11.14974053-9.04966435 20.19940489-20.19940489 20.19940488s-20.19940489-9.04966435-20.19940489-20.19940488l0-282.79256661C613.15216894 161.85061728999995 622.20093418 152.80095293 633.35157383 152.80095293zM390.95781699 152.80095293c11.14974053 0 20.19940489 9.04966435 20.19940488 20.19940488L411.15722099 455.79382354c0 11.14974053-9.04966435 20.19940489-20.19940487 20.19940488s-20.19940489-9.04966435-20.19940489-20.19940488l0-282.79256661C370.75841211 161.85061728999995 379.80717646 152.80095293 390.95781699 152.80095293zM794.94681201 698.18668125L673.75038359 698.18668125 673.75038359 738.58639013c0 22.30038018-18.09752959 40.39880977-40.39880976 40.39880977L390.95781699 778.9851999c-22.30038018 0-40.39970887-18.05885596-40.39970889-40.39880977l0-40.39880976L229.36167881 698.18758125c-22.30038018 0-40.39880977-18.09842959-40.39880976-40.39880977l0-40.39880976c0-22.30038018 18.09842959-40.39880977 40.39880976-40.39880977l0-504.98781855c0-44.60076035 36.15728555-80.79671953 80.79851865-80.79671953l403.98989502-0.00179913c44.60076035 0 80.79761953 36.15728555 80.79761953 80.79851866L794.94771114 576.9902528299999c22.30038018 0 40.39970887 18.05795683 40.39970888 40.39880977l0 40.39880977C835.3465209 680.08825254 817.24719219 698.18668125 794.94681201 698.18668125zM390.95781699 720.18486709c0 11.14974053 9.04966435 20.19940489 20.19940488 20.19940488l201.99494708 0c11.15063964 0 20.19940489-9.04966435 20.19940488-20.19940488l0-20.19940488c-19.55274346 0-242.39375684 0-242.39375684 0L390.95781699 720.18486709zM754.54890224 72.00243427999999c0-22.30038018-18.09932871-40.39791065-40.39970889-40.39791065L310.16019747 31.604524510000033c-22.3012793 0-40.39970887 18.09752959-40.3997089 40.39791065L269.76048857 576.9902528299999c27.75428262 0 462.08330771 0 484.7893128 0L754.54980137 72.00243427999999zM774.74740713 617.3890626L249.56108369 617.3890626c-11.14974053 0-20.19940489 9.04966435-20.19940488 20.19850576 0 11.14974053 9.04966435 20.19940489 20.19940488 20.19940489l525.18722344 0c11.14974053 0 20.19940489-9.04966435 20.19940488-20.19940489C794.94681201 626.43872695 785.89804678 617.3890626 774.74740713 617.3890626z"  horiz-adv-x="1024" />

    
    <glyph glyph-name="loop-all" unicode="&#58924;" d="M726.272 12.326400000000035l150.5856-16.4736c16.9344-1.8048 29.2224-17.184 27.36-34.176-1.728-15.7632-15.1296-27.5712-30.6816-27.5712-1.2096 0-2.1888 0.0768-3.3984 0.192l-216.6144 23.7312c-8.1792 0.9408-15.6096 4.992-20.7168 11.4432-5.2032 6.3552-7.5264 14.5344-6.72 22.7328l23.6928 216.96c1.8624 16.992 17.0688 29.2992 34.08 27.4368 17.0112-1.8624 29.1648-17.2032 27.3792-34.2336l-14.9568-136.0896c115.9872 63.9744 194.8032 187.3344 194.8032 329.3376 0 207.8016-168.288 376.3968-375.7824 376.3968-1.9584 0-3.7248-0.2688-5.664-0.2688L509.6384 772.3968C494.5664 774.3744 482.7968 787.2 482.7968 802.944c0 15.4752 11.3664 28.1472 26.1696 30.4128L508.9664 833.568c1.056 0 2.0544 0.0576 2.9568 0.1344 0.6144 0 1.152 0.2112 1.7472 0.2112 0.192 0 0.4032-0.0768 0.5184-0.0768 0.4032 0.0768 0.7872 0.0768 1.2096 0.0768 241.2096 0 437.5104-196.5696 437.5104-438.24C952.928 230.64959999999996 861.2288 87.01440000000002 726.272 12.326400000000035L726.272 12.326400000000035 726.272 12.326400000000035zM514.9952-65.43359999999996l0-0.1152c-1.056 0-1.9776-0.1728-2.9568-0.1728-0.6144 0-1.152-0.192-1.728-0.192-0.2112 0-0.3648 0.0768-0.5184 0.0768-0.4032 0-0.8064-0.0768-1.2096-0.0768-241.2672 0-437.4912 196.6464-437.4912 438.2592 0 165.0048 91.7184 308.6208 226.5984 383.2896l-150.528 16.5312C130.1888 774.0288 117.92 789.312 119.6864 806.3232c1.728 15.8208 15.1488 27.5904 30.7008 27.5904 1.1328 0 2.2464-0.0768 3.3984-0.2112l216.5568-23.712c8.2368-0.9216 15.6672-5.0496 20.7744-11.424 5.2032-6.4512 7.5264-14.6304 6.6624-22.8096l-23.712-216.8832c-1.8624-17.0112-17.0688-29.28-34.08-27.4368-16.992 1.92-29.1648 17.2032-27.2832 34.1376l14.8608 136.1664C211.5776 637.7280000000001 132.8576 514.4448 132.8576 372.40319999999997c0-207.84 168.192-376.4544 375.7056-376.4544 1.92 0 3.7248 0.3264 5.6448 0.4032l0-0.768c15.2256-1.9776 26.8992-14.8608 26.8992-30.528C541.1264-50.36159999999995 529.7792-63.01440000000002 514.9952-65.43359999999996L514.9952-65.43359999999996 514.9952-65.43359999999996zM514.9952-65.43359999999996"  horiz-adv-x="1024" />

    
    <glyph glyph-name="cplay1" unicode="&#58906;" d="M512-66C263.4453125-66 62 135.4453125 62 384S263.4453125 834 512 834s450-201.4453125 450-450S760.5546875-66 512-66zM512 805.875C278.12304687 805.875 90.125 617.87695313 90.125 384s187.99804688-421.875 421.875-421.875c233.96484375 0 421.875 187.99804688 421.875 421.875C933.875 617.87695313 745.87695313 805.875 512 805.875zM737 384L399.5 187.125 399.5 580.875 737 384z"  horiz-adv-x="1024" />

    
    <glyph glyph-name="add" unicode="&#58882;" d="M896 320L576 320l0-320L448 0 448 320 128 320 128 448l320 0L448 768l128 0 0-320 320 0L896 320z"  horiz-adv-x="1024" />

    
    <glyph glyph-name="right" unicode="&#58957;" d="M562.922786 387.215228L348.935134 549.066453c-2.475378 1.429559-5.568832-0.357134-5.568832-3.215228L343.366302 222.14979800000003c0-2.858094 3.094478-4.644787 5.568832-3.215228l213.987652 161.850202C565.398164 382.213307 565.398164 385.786693 562.922786 387.215228zM676.921143 548.760484l-73.783447 0c-2.050706 0-3.712555-1.892093-3.712555-4.226255l0-321.067436c0-2.334161 1.661849-4.226255 3.712555-4.226255l73.783447 0c2.050706 0 3.712555 1.892093 3.712555 4.226255L680.633698 544.53423C680.633698 546.868391 678.970826 548.760484 676.921143 548.760484zM512 801.508929c56.377008 0 111.051235-11.034311 162.504094-32.796964 49.713238-21.026896 94.366228-51.134611 132.719744-89.488127s68.461231-83.006506 89.488127-132.719744c21.762653-51.452859 32.796964-106.127086 32.796964-162.504094s-11.034311-111.051235-32.796964-162.504094c-21.026896-49.713238-51.134611-94.366228-89.488127-132.719744s-83.006506-68.461231-132.719744-89.488127c-51.452859-21.762653-106.127086-32.796964-162.504094-32.796964s-111.051235 11.034311-162.504094 32.796964c-49.713238 21.026896-94.366228 51.134611-132.719744 89.488127s-68.461231 83.006506-89.488127 132.719744c-21.762653 51.452859-32.796964 106.127086-32.796964 162.504094s11.034311 111.051235 32.796964 162.504094c21.026896 49.713238 51.134611 94.366228 89.488127 132.719744s83.006506 68.461231 132.719744 89.488127C400.948765 790.474618 455.622992 801.508929 512 801.508929M512 832.208115c-247.538793 0-448.208115-200.669322-448.208115-448.208115s200.669322-448.208115 448.208115-448.208115 448.208115 200.669322 448.208115 448.208115S759.537769 832.208115 512 832.208115L512 832.208115z"  horiz-adv-x="1024" />

    
    <glyph glyph-name="left" unicode="&#58959;" d="M461.077214 387.215228l213.987652 161.850202c2.475378 1.429559 5.569856-0.357134 5.569856-3.215228L680.634722 222.14979800000003c0-2.858094-3.094478-4.644787-5.569856-3.215228L461.077214 380.784772C458.601836 382.213307 458.601836 385.786693 461.077214 387.215228zM347.078857 548.760484l73.783447 0c2.050706 0 3.712555-1.892093 3.712555-4.226255l0-321.067436c0-2.334161-1.662873-4.226255-3.712555-4.226255L347.078857 219.240539c-2.050706 0-3.712555 1.892093-3.712555 4.226255L343.366302 544.53423C343.366302 546.868391 345.028151 548.760484 347.078857 548.760484zM512 801.508929c56.377008 0 111.051235-11.034311 162.504094-32.796964 49.713238-21.026896 94.366228-51.134611 132.719744-89.488127s68.461231-83.006506 89.488127-132.719744c21.762653-51.452859 32.796964-106.127086 32.796964-162.504094s-11.034311-111.051235-32.796964-162.504094c-21.026896-49.713238-51.134611-94.366228-89.488127-132.719744s-83.006506-68.461231-132.719744-89.488127c-51.452859-21.762653-106.127086-32.796964-162.504094-32.796964s-111.051235 11.034311-162.504094 32.796964c-49.713238 21.026896-94.366228 51.134611-132.719744 89.488127s-68.461231 83.006506-89.488127 132.719744c-21.762653 51.452859-32.796964 106.127086-32.796964 162.504094s11.034311 111.051235 32.796964 162.504094c21.026896 49.713238 51.134611 94.366228 89.488127 132.719744s83.006506 68.461231 132.719744 89.488127C400.948765 790.474618 455.622992 801.508929 512 801.508929M512 832.208115c-247.538793 0-448.208115-200.669322-448.208115-448.208115s200.669322-448.208115 448.208115-448.208115 448.208115 200.669322 448.208115 448.208115S759.537769 832.208115 512 832.208115L512 832.208115z"  horiz-adv-x="1024" />

    
    <glyph glyph-name="playlist" unicode="&#58880;" d="M672 270.890667L672 703.914667c0 17.749333 14.421333 32.085333 31.701333 32.085333l128.597333 0c17.493333 0 31.701333-14.208 31.701333-32 0-17.664-14.421333-32-31.701333-32L736 672l0-514.218667c0 0 0 0 0 0-1.194667-69.674667-58.026667-125.781333-128-125.781333-70.698667 0-128 57.301333-128 128s57.301333 128 128 128C631.296 288 653.184 281.770667 672 270.890667L672 270.890667zM160 256c0 17.664 14.506667 32 32.426667 32l191.146667 0c17.92 0 32.426667-14.208 32.426667-32 0-17.664-14.506667-32-32.426667-32L192.426667 224C174.506667 224 160 238.20799999999997 160 256zM160 416c0 17.664 14.378667 32 32.213333 32l383.573333 0c17.792 0 32.213333-14.208 32.213333-32 0-17.664-14.378667-32-32.213333-32l-383.573333 0C174.421333 384 160 398.208 160 416zM160 576c0 17.664 14.378667 32 32.213333 32l383.573333 0c17.792 0 32.213333-14.208 32.213333-32 0-17.664-14.378667-32-32.213333-32l-383.573333 0C174.421333 544 160 558.2080000000001 160 576z"  horiz-adv-x="1024" />

    
    <glyph glyph-name="favorite" unicode="&#58883;" d="M21.333333 896v-1024M42.666667 896v-1024M64 896v-1024M85.333333 896v-1024M106.666667 896v-1024M128 896v-1024M149.333333 896v-1024M170.666667 896v-1024M192 896v-1024M213.333333 896v-1024M234.666667 896v-1024M256 896v-1024M277.333333 896v-1024M298.666667 896v-1024M320 896v-1024M341.333333 896v-1024M362.666667 896v-1024M384 896v-1024M405.333333 896v-1024M426.666667 896v-1024M448 896v-1024M469.333333 896v-1024M490.666667 896v-1024M512 896v-1024M533.333333 896v-1024M554.666667 896v-1024M576 896v-1024M597.333333 896v-1024M618.666667 896v-1024M640 896v-1024M661.333333 896v-1024M682.666667 896v-1024M704 896v-1024M725.333333 896v-1024M746.666667 896v-1024M768 896v-1024M789.333333 896v-1024M810.666667 896v-1024M832 896v-1024M853.333333 896v-1024M874.666667 896v-1024M896 896v-1024M917.333333 896v-1024M938.666667 896v-1024M960 896v-1024M981.333333 896v-1024M1002.666667 896v-1024M0 874.666667h1024M0 853.333333h1024M0 832h1024M0 810.666667h1024M0 789.333333h1024M0 768h1024M0 746.666667h1024M0 725.333333h1024M0 704h1024M0 682.666667h1024M0 661.333333h1024M0 640h1024M0 618.666667h1024M0 597.333333h1024M0 576h1024M0 554.666667h1024M0 533.333333h1024M0 512h1024M0 490.666667h1024M0 469.333333h1024M0 448h1024M0 426.666667h1024M0 405.333333h1024M0 384h1024M0 362.666667h1024M0 341.333333h1024M0 320h1024M0 298.666667h1024M0 277.333333h1024M0 256h1024M0 234.666667h1024M0 213.333333h1024M0 192h1024M0 170.666667h1024M0 149.333333h1024M0 128h1024M0 106.666667h1024M0 85.333333h1024M0 64h1024M0 42.666667h1024M0 21.333333h1024M0 0h1024M0-21.333333h1024M0-42.666667h1024M0-64h1024M0-85.333333h1024M0-106.666667h1024M512-14l-62 56c-220 200-364 330-364 492C86 666 188 768 320 768c74 0 146-36 192-90C558 732 630 768 704 768c132 0 234-102 234-234 0-162-144-294-364-494z"  horiz-adv-x="1024" />

    
    <glyph glyph-name="sequence" unicode="&#58907;" d="M688.87438222 513.90691555H329.08174222a24.27259221 24.27259221 0 1 0 0 48.54518557h359.79264a24.27259221 24.27259221 0 1 0 0-48.54518557M688.87438222 359.72740779000003H329.08174222a24.27259221 24.27259221 0 1 0 0 48.54518442h359.79264a24.27259221 24.27259221 0 1 0 0-48.54518442M688.87438222 205.54789888000005H329.08174222a24.27259221 24.27259221 0 1 0 0 48.54518557h359.79264a24.27259221 24.27259221 0 1 0 0-48.54518557M100.57955555 204.14008889000002c-9.78185443 0-18.98116779 5.94678557-22.69487445 15.63155001A459.81999445 459.81999445 0 0 0 47.78666666 384C47.78666666 638.30395221 254.68624554 845.17925888 508.96592554 845.17925888a462.39288889 462.39288889 0 0 0 375.88536889-193.93801443c7.76723001-10.92266667 5.21860779-26.04449223-5.67978666-33.83599446a24.29686557 24.29686557 0 0 0-33.86026667 5.70406002A413.84770333 413.84770333 0 0 1 508.96592554 796.63407445C281.43464334 796.63407445 96.33185222 611.5312833400001 96.33185222 384c0-50.65690112 9.05367666-100.10017223 26.94257779-146.94627555a24.29686557 24.29686557 0 0 0-22.69487446-32.91363556M508.96592554-77.17925888000002c-146.94627555 0-281.75625443 67.62344334-369.79294777 185.56396999a24.29686557 24.29686557 0 0 0 38.90896555 29.05429334C256.87077887 31.853226670000026 377.48129222-28.634074449999957 508.96592554-28.634074449999957c227.53128334 0 412.63407445 185.10279111 412.63407445 412.63407445 0 49.37045333-8.61676999 97.69718557-25.63185777 143.54811221a24.22404779 24.22404779 0 0 0 14.29655665 31.19028224 24.22404779 24.22404779 0 0 0 31.21455445-14.32083 459.77144889 459.77144889 0 0 0 28.64165888-160.44183666c0-254.25540779-206.85103445-461.17925888-461.17925888-461.17926002M869.53528889 615.92462222a25.09786112 25.09786112 0 0 0-25.09786112 24.73377223l-1.55344555 102.77015666a25.09786112 25.09786112 0 0 0 24.70949888 25.48622222c13.81110557-0.77672334 25.2920411-10.8741211 25.48622222-24.75804444l1.5777189-102.74588444a25.14640555 25.14640555 0 0 0-24.73377224-25.48622223h-0.38836109zM150.70245887-10.599537779999991a25.09786112 25.09786112 0 0 0-25.12213333 24.75804445l-1.57771776 102.77015666a25.14640555 25.14640555 0 0 0 24.75804444 25.48622222h0.36408889c13.68974222 0 24.87940779-10.97121223 25.09785999-24.7337711l1.57771889-102.79443a25.14640555 25.14640555 0 0 0-24.73377222-25.48622223H150.70245887z"  horiz-adv-x="1024" />

    
    <glyph glyph-name="loop" unicode="&#58900;" d="M421.12341333 478.37184c-6.31087445 0-20.38897778 3.88361443-20.38897778 21.82106112 0 17.9617189 8.2526811 19.90352555 42.23431112 25.72894777 31.55436999 5.82542222 48.54518557 30.63201223 56.82213888 54.90460444 3.88361443 10.67994112 7.28177778 22.33078557 25.24349667 22.33078557 15.04900779 0 24.75804445-10.70421333 24.75804445-20.38897778v-362.24417223c0-23.30168889-16.50536334-27.67075555-29.12711112-27.67075556-16.50536334 0-29.12711111 6.79632555-29.1271111 27.67075556V478.37184h-70.3905189zM103.66217443 203.16918556999997c-9.78185443 0-18.98116779 5.94678557-22.69487331 15.63154886A460.11126557 460.11126557 0 0 0 50.82074112 383.27182222C50.82074112 637.96413667 258.03586333 845.17925888 512.72817778 845.17925888a463.12106667 463.12106667 0 0 0 376.46791111-194.22928555 24.27259221 24.27259221 0 0 0-39.51578112-28.15620778A414.52733667 414.52733667 0 0 1 512.72817778 796.63407445C284.80853333 796.63407445 99.36592555 611.19146667 99.36592555 383.27182222c0-50.7297189 9.07795001-100.24580779 26.99112334-147.1890011a24.32113778 24.32113778 0 0 0-22.69487446-32.91363555M512.72817778-78.63561443000003c-147.21327445 0-282.21743445 67.72053333-370.39976335 185.83096888a24.27259221 24.27259221 0 1 0 38.90896669 29.05429334c78.93447111-105.70714112 199.73916445-166.34007666 331.49079666-166.3400778 227.91964445 0 413.33797888 185.41833443 413.33797888 413.36225223 0 49.49181667-8.64104334 97.86709333-25.68040221 143.81511111a24.27259221 24.27259221 0 0 0 45.51111112 16.86945224 460.40253667 460.40253667 0 0 0 28.71447665-160.68456335c0-254.69231445-207.19084999-461.90743666-461.90743665-461.90743665M873.90435555 615.6090789a25.09786112 25.09786112 0 0 0-25.09786112 24.73377109l-1.57771776 102.96433778a25.14640555 25.14640555 0 0 0 24.75804445 25.48622222c14.66064555-0.67963221 25.24349667-10.8741211 25.48622222-24.73377109l1.55344555-102.96433778a25.14640555 25.14640555 0 0 0-24.73377223-25.48622222h-0.38836111zM153.85789667-11.958803340000031a25.09786112 25.09786112 0 0 0-25.09786112 24.75804444l-1.57771889 102.96433778a25.14640555 25.14640555 0 0 0 24.73377223 25.48622222c14.90337223 0 25.2920411-10.89839445 25.48622222-24.75804444l1.5777189-102.96433778a25.14640555 25.14640555 0 0 0-24.75804444-25.48622222h-0.3640889z"  horiz-adv-x="1024" />

    
    <glyph glyph-name="search" unicode="&#58912;" d="M727.934 201.31600000000003c60.047 67.008 96.572 155.563 96.572 252.643 0 209.08-169.492 378.596-378.596 378.596-209.102 0-378.598-169.516-378.598-378.596 0-209.129 169.495-378.643 378.598-378.643 95.079 0 181.977 35.056 248.505 92.963l230.23-230.251 33.288 33.286-229.999 230.002z m-282.023-79.174c-182.943 0-331.772 148.873-331.772 331.817 0 182.897 148.828 331.815 331.772 331.815 182.942 0 331.77-148.918 331.77-331.815 0-182.943-148.828-331.817-331.77-331.817z"  horiz-adv-x="1024" />

    
    <glyph glyph-name="not-favorite" unicode="&#58909;" d="M695.49862812 732.13932188c109.26319969 0 198.15461156-98.71035469 198.15461063-220.04025282 0-73.9716075-33.22707188-125.86186594-62.55726563-171.66601031-34.65362437-54.19749375-98.21820844-123.82228875-183.82096968-201.34828594-68.06776969-61.64492438-126.00384938-106.51850063-128.43675938-108.39882562-0.22928438-0.17652-0.45569063-0.35591906-0.68017969-0.53819531-1.52728406-1.23660188-3.82972313-1.97434125-6.15806437-1.97434125-2.44730063 0-4.62118688 0.79913813-6.84112219 2.51349562a34.7015925 34.7015925 0 0 1-0.64756031 0.48926813c-0.49598344 0.36839063-57.95526656 44.3468925-128.23337813 108.01124812-85.29385031 77.26697344-148.69342594 146.84092219-183.34609125 201.20054625l-0.12567468 0.19570781c-13.52299125 20.93204813-30.35190188 46.98414469-42.70544532 76.22991563-13.29370687 31.47338063-19.75588594 62.64168937-19.75588593 95.28451687 0 30.13125094 5.37235781 59.314665 15.96645468 86.74055063 10.16334938 26.30920219 24.67063313 49.89097406 43.12084407 70.09007906 37.23043781 40.76180344 86.47001344 63.20962406 138.64615781 63.20962313 29.49328313 0 57.98116875-7.11837375 84.67219219-21.15653532 26.32263281-13.84437375 49.97251875-34.33032375 68.39394937-59.24271375a38.3739825 38.3739825 0 0 1 61.70920125 0c18.45308906 24.95556 42.0463725 45.45014438 68.2299 59.26765688 26.57206406 14.02281281 54.97360781 21.13255219 84.41508656 21.13255219m0 38.3739825c-72.38964 0-139.30714969-36.1953-183.49862812-95.95894032-44.19051844 59.76364031-111.53014219 95.95893937-183.92074219 95.95894032-130.46962125 0-236.10743906-115.73976844-236.10743906-258.41423532 0-85.01563969 37.87799906-144.77928 68.60212781-192.33711562 88.80315187-139.30810875 311.44420125-312.28555031 321.12307875-319.44037969 9.25964156-7.15482938 19.78178813-10.52214563 30.30297469-10.52214562 10.52214563 0 21.46352812 3.36731719 30.30201562 10.52214562 9.2586825 7.15482938 232.31992687 180.553425 321.12403782 319.44037969 30.72221063 47.97899063 68.60116875 107.32147594 68.60116781 192.33711562 0 142.67542594-106.05801281 258.41423531-236.52859313 258.41423532z"  horiz-adv-x="1024" />

    
    <glyph glyph-name="yonghu" unicode="&#58936;" d="M838.1 114.9C788.7 162 719.8 182.8 679 186.5c-8.1 1-15.9 4.2-20.8 9-3.4 3.7-5.9 8.1-6.6 12.7 31.5 26.1 45.9 62.1 57.9 92.9 6.1 14.9 11.5 27.9 15.2 31.3v0.2l0.5 0.5 0.5 0.5c14.7 13 34.7 38.4 45.5 66.7 10.8 28.9 13.2 61.6-5.4 90.9 5.9 20.5 10.3 41.3 12.7 60.6 3.4 24.9 3.4 48.4-0.5 70.9-4.7 30.3-26.4 81.6-56.7 116.8-24.7 29.3-56.2 49.4-92.4 46.2-17.6 24.7-46.4 36.4-77 41.8-26.7 5.1-54 4.6-74.1 4.4-53.8-1.2-101.7-13.2-140.3-39.6-36.2-24.2-64.5-59.9-81.1-108.5l-1.5-2.9c-11.7-34.7-17.6-72.6-17.1-110 0-29.3 4.4-57.7 12.9-83.6-16.1-28.4-13.4-59.4-2.7-87.5 10.5-28.4 30.8-53.3 45.2-66.5v-0.2h0.2l0.2-0.2 0.7-0.2c3-3.7 8.3-16.4 14.7-31.5 12.2-31 27.4-67.7 59.6-94.3-1-3.9-2.9-8.1-6.1-11.3-5.1-4.9-12.5-8.1-20.8-9-41.1-3.7-110-24.4-159.3-71.6-35.4-34.5-61.1-81.4-61.1-144 0-19.1 15.7-34.5 34.2-34.5 18.8 0 34.7 15.4 34.7 34.2 0 41.3 16.6 71.8 40.1 94.4 36.2 34.9 86.8 50.6 116.8 52.8 24.9 2.4 47.9 12.7 64 29.3 22 22 26.9 47.4 26.9 76.7 0 13.7-7.3 25-18.1 30.3-24 14.9-36.7 46.4-47.4 72.6-9 22.7-17.1 42.5-32 56.5h-0.5l-1 1.5c-8.5 8.1-20.8 23.5-27.1 39.6-10.7 29.3 7.3 30.3 11 52.8 1.7 7.6 0.2 15.9-3.7 22.5-8.5 21-12.7 46.2-13.2 72.4-0.5 29.3 4.7 59.4 13.7 86.5l1 2.7c12 34 30.5 58.2 54.5 74.1 27.6 19.1 63 27.4 103.9 27.8 17.1 0.5 40.1 1 60.4-2.7 15.4-2.7 28.6-7.6 33.7-15.4l2.2-2.4c6.4-9 14.7-15.9 24-20.5 10.8-4.9 22.5-6.6 34.5-4.9 10.7 2 23.4-8.1 35.2-22 22.2-25.9 37.9-61.6 40.8-82.1 2.9-16.9 2.5-33.9 0.2-52.3-2.2-19.5-7.1-39.8-13.9-61.6-4.2-12.5-1-30.6 8.1-40.6h-0.2c8.3-8.8 7.3-21.5 2.4-34.2-6.3-17.1-19.1-32.5-27.6-40.1l-0.2-0.5v0.5c-15.7-14.2-23.5-34.2-33-57.5-10-26.1-22.7-57.2-46.9-71.6-34.5-21.7-8.1-89.9 10.5-108 16.6-16.6 39.1-26.9 63.6-29.3 30.3-2.2 81.1-17.9 117.5-52.8 23.2-22.5 40.3-53 40.3-94.1 0-19.1 15.2-34.5 34.2-34.5 18.6 0 34.2 15.4 34.2 34.2 0.1 62.7-25.8 109.8-61 144.1z"  horiz-adv-x="1024" />

    
    <glyph glyph-name="false" unicode="&#58960;" d="M512 898.38478222c-284.28060445 0-514.38478222-230.68672-514.38478222-514.38478222s230.68672-514.38478222 514.38478222-514.38478222 514.38478222 230.68672 514.38478222 514.38478222S796.28060445 898.38478222 512 898.38478222z m189.32622222-643.12661333c12.81592889-12.81592889 12.81592889-33.20490667 0-45.43829334l-15.14609777-15.14609777c-12.81592889-12.81592889-33.20490667-12.81592889-45.43829334 0L512 323.41560889000004l-128.74183111-128.74183111c-12.81592889-12.81592889-33.20490667-12.81592889-45.43829334 0l-15.14609777 15.14609777c-12.81592889 12.81592889-12.81592889 33.20490667 0 45.43829334l128.74183111 128.74183111-128.74183111 128.74183111c-12.81592889 12.81592889-12.81592889 33.20490667 0 45.43829334l15.14609777 15.14609777c12.81592889 12.81592889 33.20490667 12.81592889 45.43829334 0l128.74183111-128.74183111 128.74183111 128.74183111c12.81592889 12.81592889 33.20490667 12.81592889 45.43829334 0l15.14609777-15.14609777c12.81592889-12.81592889 12.81592889-33.20490667 0-45.43829334L572.58439111 384l128.74183111-128.74183111z"  horiz-adv-x="1024" />

    
    <glyph glyph-name="success" unicode="&#58908;" d="M512-128C229.2224-128 0 101.24800000000005 0 384 0 666.7776 229.2224 896 512 896c282.786133 0 512-229.2224 512-512 0-282.752-229.213867-512-512-512z m298.769067 669.124267a48.085333 48.085333 0 0 1-67.6608 0L472.4224 271.82079999999996 337.0496 406.417067a48.008533 48.008533 0 0 1-67.677867 0 47.428267 47.428267 0 0 1 0-67.319467l169.207467-168.226133c18.645333-18.602667 48.964267-18.602667 67.694933 0l304.494934 302.9504a47.325867 47.325867 0 0 1 0 67.3024z"  horiz-adv-x="1024" />

    
    <glyph glyph-name="delete" unicode="&#58886;" d="M512 449.9132685L270.42678342 691.54086811a46.60698867 46.60698867 0 1 1-65.91326712-65.9132685L446.03234847 384l-241.62760099-241.57321658a46.60698867 46.60698867 0 1 1 65.91326849-65.91326712L512 318.03234847l241.57321658-241.62760099a46.60698867 46.60698867 0 1 1 65.91326712 65.91326849L577.96765153 384l241.62760099 241.57321658a46.60698867 46.60698867 0 1 1-65.91326849 65.91326712L512 449.96765153z"  horiz-adv-x="1024" />

    
    <glyph glyph-name="random" unicode="&#59193;" d="M800 119.89333299999998V234.66666699999996a32 32 0 1 0 64 0V42.66666699999996a32 32 0 0 0-32-32h-213.333333a32 32 0 1 0 0 64h136.106666l-201.386666 201.386666a32 32 0 0 0 45.226666 45.226667l201.386667-201.386667zM754.773333 693.333333H640a32 32 0 1 0 0 64h192a32 32 0 0 0 32-32v-192a32 32 0 1 0-64 0V648.106667L214.613333 62.72000000000003a32 32 0 0 0-45.226666 45.226667L754.773333 693.333333zM212.053333 616.746667a32 32 0 1 0 45.226667 45.312l170.666667-170.112a32 32 0 0 0-45.226667-45.354667l-170.666667 170.154667z"  horiz-adv-x="1024" />

    


  </font>
</defs>
</svg>
